<?xml version="1.0" encoding="UTF-8"?>
<svg width="26px" height="26px" viewBox="0 0 26 26" version="1.1" xmlns="http://www.w3.org/2000/svg" xmlns:xlink="http://www.w3.org/1999/xlink">
    <!-- Generator: sketchtool 49.3 (51167) - http://www.bohemiancoding.com/sketch -->
    <title>DF3DC026-565A-4A04-A1C4-B201E9D7E69F</title>
    <desc>Created with sketchtool.</desc>
    <defs></defs>
    <g id="Home" stroke="none" stroke-width="1" fill="none" fill-rule="evenodd">
        <g transform="translate(-229.000000, -2291.000000)" fill="#7F7F7F" fill-rule="nonzero" id="Footer">
            <g transform="translate(229.000000, 2291.000000)">
                <g id="facebook-official">
                    <path d="M24.5611979,0 C24.9561632,0 25.2947049,0.141059028 25.5768229,0.423177083 C25.858941,0.705295139 26,1.04383681 26,1.43880208 L26,24.5611979 C26,24.9561632 25.858941,25.2947049 25.5768229,25.5768229 C25.2947049,25.858941 24.9561632,26 24.5611979,26 L17.9427083,26 L17.9427083,15.9283854 L21.3111979,15.9283854 L21.8190104,12.0013021 L17.9427083,12.0013021 L17.9427083,9.49609375 C17.9427083,8.86414931 18.0753038,8.39019097 18.3404948,8.07421875 C18.6056858,7.75824653 19.1219618,7.60026042 19.8893229,7.60026042 L21.9544271,7.58333333 L21.9544271,4.07942708 C21.2434896,3.97786458 20.2391493,3.92708333 18.9414062,3.92708333 C17.406684,3.92708333 16.1794705,4.37847222 15.2597656,5.28125 C14.3400608,6.18402778 13.8802083,7.45920139 13.8802083,9.10677083 L13.8802083,12.0013021 L10.4947917,12.0013021 L10.4947917,15.9283854 L13.8802083,15.9283854 L13.8802083,26 L1.43880208,26 C1.04383681,26 0.705295139,25.858941 0.423177083,25.5768229 C0.141059028,25.2947049 0,24.9561632 0,24.5611979 L0,1.43880208 C0,1.04383681 0.141059028,0.705295139 0.423177083,0.423177083 C0.705295139,0.141059028 1.04383681,0 1.43880208,0 L24.5611979,0 Z" id="Shape"></path>
                </g>
            </g>
        </g>
    </g>
</svg>