<?xml version="1.0" encoding="UTF-8"?>
<svg width="26px" height="26px" viewBox="0 0 26 26" version="1.1" xmlns="http://www.w3.org/2000/svg" xmlns:xlink="http://www.w3.org/1999/xlink">
    <!-- Generator: sketchtool 49.3 (51167) - http://www.bohemiancoding.com/sketch -->
    <title>D17BDCA5-A119-4516-B9F9-3FA6AAF4BC58</title>
    <desc>Created with sketchtool.</desc>
    <defs></defs>
    <g id="Home" stroke="none" stroke-width="1" fill="none" fill-rule="evenodd">
        <g transform="translate(-281.000000, -2291.000000)" fill="#7F7F7F" fill-rule="nonzero" id="Footer">
            <g transform="translate(229.000000, 2291.000000)">
                <g id="instagram" transform="translate(52.000000, 0.000000)">
                    <path d="M17.3333333,13 C17.3333333,11.8038194 16.9101562,10.7825521 16.0638021,9.93619792 C15.2174479,9.08984375 14.1961806,8.66666667 13,8.66666667 C11.8038194,8.66666667 10.7825521,9.08984375 9.93619792,9.93619792 C9.08984375,10.7825521 8.66666667,11.8038194 8.66666667,13 C8.66666667,14.1961806 9.08984375,15.2174479 9.93619792,16.0638021 C10.7825521,16.9101562 11.8038194,17.3333333 13,17.3333333 C14.1961806,17.3333333 15.2174479,16.9101562 16.0638021,16.0638021 C16.9101562,15.2174479 17.3333333,14.1961806 17.3333333,13 Z M19.6692708,13 C19.6692708,14.8506944 19.0203993,16.4249132 17.7226563,17.7226563 C16.4249132,19.0203993 14.8506944,19.6692708 13,19.6692708 C11.1493056,19.6692708 9.57508681,19.0203993 8.27734375,17.7226563 C6.97960069,16.4249132 6.33072917,14.8506944 6.33072917,13 C6.33072917,11.1493056 6.97960069,9.57508681 8.27734375,8.27734375 C9.57508681,6.97960069 11.1493056,6.33072917 13,6.33072917 C14.8506944,6.33072917 16.4249132,6.97960069 17.7226563,8.27734375 C19.0203993,9.57508681 19.6692708,11.1493056 19.6692708,13 Z M21.4973958,6.05989583 C21.4973958,6.48871528 21.3450521,6.85546875 21.0403646,7.16015625 C20.7356771,7.46484375 20.3689236,7.6171875 19.9401042,7.6171875 C19.5112847,7.6171875 19.1445312,7.46484375 18.8398438,7.16015625 C18.5351562,6.85546875 18.3828125,6.48871528 18.3828125,6.05989583 C18.3828125,5.63107639 18.5351562,5.26432292 18.8398438,4.95963542 C19.1445312,4.65494792 19.5112847,4.50260417 19.9401042,4.50260417 C20.3689236,4.50260417 20.7356771,4.65494792 21.0403646,4.95963542 C21.3450521,5.26432292 21.4973958,5.63107639 21.4973958,6.05989583 Z M13,2.3359375 C12.9210069,2.3359375 12.4893663,2.33311632 11.7050781,2.32747396 C10.9207899,2.3218316 10.3255208,2.3218316 9.91927083,2.32747396 C9.51302083,2.33311632 8.96853299,2.3500434 8.28580729,2.37825521 C7.6030816,2.40646701 7.0219184,2.46289062 6.54231771,2.54752604 C6.06271701,2.63216146 5.65928819,2.73654514 5.33203125,2.86067708 C4.76779514,3.08637153 4.27126736,3.41362847 3.84244792,3.84244792 C3.41362847,4.27126736 3.08637153,4.76779514 2.86067708,5.33203125 C2.73654514,5.65928819 2.63216146,6.06271701 2.54752604,6.54231771 C2.46289062,7.0219184 2.40646701,7.6030816 2.37825521,8.28580729 C2.3500434,8.96853299 2.33311632,9.51302083 2.32747396,9.91927083 C2.3218316,10.3255208 2.3218316,10.9207899 2.32747396,11.7050781 C2.33311632,12.4893663 2.3359375,12.9210069 2.3359375,13 C2.3359375,13.0789931 2.33311632,13.5106337 2.32747396,14.2949219 C2.3218316,15.0792101 2.3218316,15.6744792 2.32747396,16.0807292 C2.33311632,16.4869792 2.3500434,17.031467 2.37825521,17.7141927 C2.40646701,18.3969184 2.46289062,18.9780816 2.54752604,19.4576823 C2.63216146,19.937283 2.73654514,20.3407118 2.86067708,20.6679688 C3.08637153,21.2322049 3.41362847,21.7287326 3.84244792,22.1575521 C4.27126736,22.5863715 4.76779514,22.9136285 5.33203125,23.1393229 C5.65928819,23.2634549 6.06271701,23.3678385 6.54231771,23.452474 C7.0219184,23.5371094 7.6030816,23.593533 8.28580729,23.6217448 C8.96853299,23.6499566 9.51302083,23.6668837 9.91927083,23.672526 C10.3255208,23.6781684 10.9207899,23.6781684 11.7050781,23.672526 C12.4893663,23.6668837 12.9210069,23.6640625 13,23.6640625 C13.0789931,23.6640625 13.5106337,23.6668837 14.2949219,23.672526 C15.0792101,23.6781684 15.6744792,23.6781684 16.0807292,23.672526 C16.4869792,23.6668837 17.031467,23.6499566 17.7141927,23.6217448 C18.3969184,23.593533 18.9780816,23.5371094 19.4576823,23.452474 C19.937283,23.3678385 20.3407118,23.2634549 20.6679688,23.1393229 C21.2322049,22.9136285 21.7287326,22.5863715 22.1575521,22.1575521 C22.5863715,21.7287326 22.9136285,21.2322049 23.1393229,20.6679688 C23.2634549,20.3407118 23.3678385,19.937283 23.452474,19.4576823 C23.5371094,18.9780816 23.593533,18.3969184 23.6217448,17.7141927 C23.6499566,17.031467 23.6668837,16.4869792 23.672526,16.0807292 C23.6781684,15.6744792 23.6781684,15.0792101 23.672526,14.2949219 C23.6668837,13.5106337 23.6640625,13.0789931 23.6640625,13 C23.6640625,12.9210069 23.6668837,12.4893663 23.672526,11.7050781 C23.6781684,10.9207899 23.6781684,10.3255208 23.672526,9.91927083 C23.6668837,9.51302083 23.6499566,8.96853299 23.6217448,8.28580729 C23.593533,7.6030816 23.5371094,7.0219184 23.452474,6.54231771 C23.3678385,6.06271701 23.2634549,5.65928819 23.1393229,5.33203125 C22.9136285,4.76779514 22.5863715,4.27126736 22.1575521,3.84244792 C21.7287326,3.41362847 21.2322049,3.08637153 20.6679688,2.86067708 C20.3407118,2.73654514 19.937283,2.63216146 19.4576823,2.54752604 C18.9780816,2.46289062 18.3969184,2.40646701 17.7141927,2.37825521 C17.031467,2.3500434 16.4869792,2.33311632 16.0807292,2.32747396 C15.6744792,2.3218316 15.0792101,2.3218316 14.2949219,2.32747396 C13.5106337,2.33311632 13.0789931,2.3359375 13,2.3359375 Z M26,13 C26,15.5842014 25.9717882,17.3728299 25.9153646,18.3658854 C25.8025174,20.7131076 25.1028646,22.5299479 23.8164062,23.8164062 C22.5299479,25.1028646 20.7131076,25.8025174 18.3658854,25.9153646 C17.3728299,25.9717882 15.5842014,26 13,26 C10.4157986,26 8.62717014,25.9717882 7.63411458,25.9153646 C5.28689236,25.8025174 3.47005208,25.1028646 2.18359375,23.8164062 C0.897135417,22.5299479 0.197482639,20.7131076 0.0846354167,18.3658854 C0.0282118056,17.3728299 0,15.5842014 0,13 C0,10.4157986 0.0282118056,8.62717014 0.0846354167,7.63411458 C0.197482639,5.28689236 0.897135417,3.47005208 2.18359375,2.18359375 C3.47005208,0.897135417 5.28689236,0.197482639 7.63411458,0.0846354167 C8.62717014,0.0282118056 10.4157986,0 13,0 C15.5842014,0 17.3728299,0.0282118056 18.3658854,0.0846354167 C20.7131076,0.197482639 22.5299479,0.897135417 23.8164062,2.18359375 C25.1028646,3.47005208 25.8025174,5.28689236 25.9153646,7.63411458 C25.9717882,8.62717014 26,10.4157986 26,13 Z" id="Shape"></path>
                </g>
            </g>
        </g>
    </g>
</svg>