<?xml version="1.0" encoding="UTF-8"?>
<svg width="32px" height="26px" viewBox="0 0 32 26" version="1.1" xmlns="http://www.w3.org/2000/svg" xmlns:xlink="http://www.w3.org/1999/xlink">
    <!-- Generator: sketchtool 49.3 (51167) - http://www.bohemiancoding.com/sketch -->
    <title>CA18D5FA-AC79-4204-B08D-E7D80B06941C</title>
    <desc>Created with sketchtool.</desc>
    <defs></defs>
    <g id="Home" stroke="none" stroke-width="1" fill="none" fill-rule="evenodd">
        <g transform="translate(-332.000000, -2291.000000)" fill="#7F7F7F" fill-rule="nonzero" id="Footer">
            <g transform="translate(229.000000, 2291.000000)">
                <g id="twitter" transform="translate(103.000000, 0.000000)">
                    <path d="M32.0125,3.0875 C31.1052083,4.41458333 30.0083333,5.5453125 28.721875,6.4796875 C28.7354167,6.66927083 28.7421875,6.95364583 28.7421875,7.3328125 C28.7421875,9.09322917 28.4848958,10.8502604 27.9703125,12.6039062 C27.4557292,14.3575521 26.6736979,16.0401042 25.6242188,17.6515625 C24.5747396,19.2630208 23.3255208,20.6882812 21.8765625,21.9273438 C20.4276042,23.1664062 18.6807292,24.1549479 16.6359375,24.8929687 C14.5911458,25.6309896 12.4041667,26 10.075,26 C6.40520833,26 3.046875,25.0182292 0,23.0546875 C0.473958333,23.1088542 1.00208333,23.1359375 1.584375,23.1359375 C4.63125,23.1359375 7.34635417,22.2015625 9.7296875,20.3328125 C8.3078125,20.3057292 7.03489583,19.8690104 5.9109375,19.0226563 C4.78697917,18.1763021 4.01510417,17.0963542 3.5953125,15.7828125 C4.0421875,15.8505208 4.45520833,15.884375 4.834375,15.884375 C5.41666667,15.884375 5.9921875,15.8098958 6.5609375,15.6609375 C5.04427083,15.3494792 3.78828125,14.5945312 2.79296875,13.3960938 C1.79765625,12.1976562 1.3,10.80625 1.3,9.221875 L1.3,9.140625 C2.22083333,9.65520833 3.209375,9.9328125 4.265625,9.9734375 C3.371875,9.37760417 2.6609375,8.59895833 2.1328125,7.6375 C1.6046875,6.67604167 1.340625,5.63333333 1.340625,4.509375 C1.340625,3.31770833 1.63854167,2.2140625 2.234375,1.1984375 C3.87291667,3.21614583 5.86692708,4.83098958 8.21640625,6.04296875 C10.5658854,7.25494792 13.08125,7.92864583 15.7625,8.0640625 C15.6541667,7.54947917 15.6,7.0484375 15.6,6.5609375 C15.6,4.74635417 16.2398437,3.19921875 17.5195312,1.91953125 C18.7992188,0.63984375 20.3463542,0 22.1609375,0 C24.0567708,0 25.6546875,0.690625 26.9546875,2.071875 C28.4307292,1.7875 29.81875,1.259375 31.11875,0.4875 C30.6177083,2.04479167 29.65625,3.25 28.234375,4.103125 C29.49375,3.96770833 30.753125,3.62916667 32.0125,3.0875 Z" id="Shape"></path>
                </g>
            </g>
        </g>
    </g>
</svg>