<?xml version="1.0" encoding="UTF-8"?>
<svg width="37px" height="26px" viewBox="0 0 37 26" version="1.1" xmlns="http://www.w3.org/2000/svg" xmlns:xlink="http://www.w3.org/1999/xlink">
    <!-- Generator: sketchtool 49.3 (51167) - http://www.bohemiancoding.com/sketch -->
    <title>606BB70A-2570-431D-A936-F15D15CBB756</title>
    <desc>Created with sketchtool.</desc>
    <defs></defs>
    <g id="Home" stroke="none" stroke-width="1" fill="none" fill-rule="evenodd">
        <g transform="translate(-383.000000, -2291.000000)" fill="#7F7F7F" fill-rule="nonzero" id="Footer">
            <g transform="translate(229.000000, 2291.000000)">
                <g id="youtube-play" transform="translate(154.000000, 0.000000)">
                    <path d="M14.6920635,17.7873016 L24.6793651,12.6285714 L14.6920635,7.40793651 L14.6920635,17.7873016 Z M18.5095238,0 C20.8206349,0 23.0526455,0.030952381 25.2055556,0.0928571429 C27.3584656,0.154761905 28.937037,0.22010582 29.9412698,0.288888889 L31.447619,0.371428571 C31.4613757,0.371428571 31.5783069,0.381746032 31.7984127,0.402380952 C32.0185185,0.423015873 32.1767196,0.443650794 32.2730159,0.464285714 C32.3693122,0.484920635 32.5309524,0.515873016 32.7579365,0.557142857 C32.9849206,0.598412698 33.1809524,0.653439153 33.3460317,0.722222222 C33.5111111,0.791005291 33.7037037,0.88042328 33.9238095,0.99047619 C34.1439153,1.1005291 34.3571429,1.23465608 34.5634921,1.39285714 C34.7698413,1.5510582 34.9693122,1.73333333 35.1619048,1.93968254 C35.2444444,2.02222222 35.3510582,2.1494709 35.481746,2.32142857 C35.6124339,2.49338624 35.8119048,2.8957672 36.0801587,3.52857143 C36.3484127,4.16137566 36.5306878,4.85608466 36.6269841,5.61269841 C36.737037,6.49312169 36.8230159,7.43201058 36.8849206,8.42936508 C36.9468254,9.42671958 36.9846561,10.2074074 36.9984127,10.7714286 L36.9984127,14.4031746 C37.0121693,16.3978836 36.8883598,18.3925926 36.6269841,20.3873016 C36.5306878,21.1439153 36.3587302,21.8283069 36.1111111,22.4404762 C35.8634921,23.0526455 35.6433862,23.4756614 35.4507937,23.7095238 L35.1619048,24.0603175 C34.9693122,24.2666667 34.7698413,24.4489418 34.5634921,24.6071429 C34.3571429,24.7653439 34.1439153,24.8960317 33.9238095,24.9992063 C33.7037037,25.102381 33.5111111,25.1883598 33.3460317,25.2571429 C33.1809524,25.3259259 32.9849206,25.3809524 32.7579365,25.4222222 C32.5309524,25.4634921 32.365873,25.4944444 32.2626984,25.5150794 C32.1595238,25.5357143 32.0013228,25.5563492 31.7880952,25.5769841 C31.5748677,25.597619 31.4613757,25.6079365 31.447619,25.6079365 C27.994709,25.8693122 23.6820106,26 18.5095238,26 C15.6619048,25.9724868 13.1891534,25.9277778 11.0912698,25.865873 C8.99338624,25.8039683 7.61428571,25.752381 6.95396825,25.7111111 L5.94285714,25.6285714 L5.2,25.5460317 C4.7047619,25.4772487 4.32989418,25.4084656 4.07539683,25.3396825 C3.82089947,25.2708995 3.47010582,25.126455 3.02301587,24.9063492 C2.57592593,24.6862434 2.18730159,24.4042328 1.85714286,24.0603175 C1.77460317,23.9777778 1.66798942,23.8505291 1.53730159,23.6785714 C1.40661376,23.5066138 1.20714286,23.1042328 0.938888889,22.4714286 C0.670634921,21.8386243 0.488359788,21.1439153 0.392063492,20.3873016 C0.282010582,19.5068783 0.196031746,18.5679894 0.134126984,17.5706349 C0.0722222222,16.5732804 0.0343915344,15.7925926 0.0206349206,15.2285714 L0.0206349206,11.5968254 C0.00687830688,9.6021164 0.130687831,7.60740741 0.392063492,5.61269841 C0.488359788,4.85608466 0.66031746,4.17169312 0.907936508,3.55952381 C1.15555556,2.9473545 1.37566138,2.52433862 1.56825397,2.29047619 L1.85714286,1.93968254 C2.04973545,1.73333333 2.24920635,1.5510582 2.45555556,1.39285714 C2.66190476,1.23465608 2.87513228,1.1005291 3.0952381,0.99047619 C3.31534392,0.88042328 3.50793651,0.791005291 3.67301587,0.722222222 C3.83809524,0.653439153 4.03412698,0.598412698 4.26111111,0.557142857 C4.48809524,0.515873016 4.64973545,0.484920635 4.74603175,0.464285714 C4.84232804,0.443650794 5.0005291,0.423015873 5.22063492,0.402380952 C5.44074074,0.381746032 5.55767196,0.371428571 5.57142857,0.371428571 C9.02433862,0.123809524 13.337037,0 18.5095238,0 Z" id="Shape"></path>
                </g>
            </g>
        </g>
    </g>
</svg>